# Blender 4.0.2
# www.blender.org
o crescent_moon
v 0.046535 0.098926 0.000000
v 0.056626 0.096549 0.000000
v -0.069419 0.000000 0.000000
v -0.065591 0.027057 0.000000
v -0.053563 0.053165 0.000000
v -0.034884 0.075137 0.000000
v -0.012043 0.090350 0.000000
v 0.012366 0.098380 0.000000
v 0.023239 0.099722 0.000000
v 0.035364 0.099972 0.000000
v 0.039690 0.084602 0.000000
v 0.056372 0.090484 0.000000
v 0.047274 0.087844 0.000000
v -0.006177 0.000000 0.000000
v -0.005325 0.015432 0.000000
v -0.002287 0.031418 0.000000
v 0.003579 0.047096 0.000000
v 0.012206 0.061800 0.000000
v 0.069419 0.092456 0.000000
v 0.046790 0.094847 0.001799
v -0.068526 0.013395 0.000000
v -0.060452 0.040799 0.000000
v -0.045089 0.064668 0.000000
v -0.023923 0.083847 0.000000
v 0.000088 0.095080 0.000000
v -0.006014 0.007778 0.000000
v -0.004089 0.023269 0.000000
v 0.000183 0.039270 0.000000
v 0.007428 0.054386 0.000000
v 0.017890 0.068540 0.000000
v -0.044541 0.000000 0.016153
v -0.042004 0.023149 0.015738
v -0.033654 0.045281 0.014402
v -0.020848 0.064520 0.012422
v -0.003313 0.079937 0.009606
v 0.037082 0.094265 0.003118
v 0.056499 0.094314 0.000878
v 0.006674 0.085610 0.008002
v -0.012352 0.073144 0.010998
v -0.027614 0.055414 0.013523
v -0.038441 0.034416 0.015164
v -0.044001 0.011285 0.016060
v 0.026792 0.092575 0.004771
v 0.016875 0.089720 0.006364
v 0.032118 0.080292 0.000000
v 0.024698 0.074809 0.000000
v 0.046535 -0.098926 0.000000
v 0.056626 -0.096549 0.000000
v -0.065591 -0.027057 0.000000
v -0.053563 -0.053165 0.000000
v -0.034884 -0.075137 0.000000
v -0.012043 -0.090350 0.000000
v 0.012366 -0.098380 0.000000
v 0.023239 -0.099722 0.000000
v 0.035364 -0.099972 0.000000
v 0.039690 -0.084602 0.000000
v 0.056372 -0.090484 0.000000
v 0.047274 -0.087844 0.000000
v -0.005325 -0.015432 0.000000
v -0.002287 -0.031418 0.000000
v 0.003579 -0.047096 0.000000
v 0.012206 -0.061800 0.000000
v 0.069419 -0.092456 0.000000
v 0.046790 -0.094847 0.001799
v -0.068526 -0.013395 0.000000
v -0.060452 -0.040799 0.000000
v -0.045089 -0.064668 0.000000
v -0.023923 -0.083847 0.000000
v 0.000088 -0.095080 0.000000
v -0.006014 -0.007778 0.000000
v -0.004089 -0.023269 0.000000
v 0.000183 -0.039270 0.000000
v 0.007428 -0.054386 0.000000
v 0.017890 -0.068540 0.000000
v -0.042004 -0.023149 0.015738
v -0.033654 -0.045281 0.014402
v -0.020848 -0.064520 0.012422
v -0.003313 -0.079937 0.009606
v 0.037082 -0.094265 0.003118
v 0.056499 -0.094314 0.000878
v 0.006674 -0.085610 0.008002
v -0.012352 -0.073144 0.010998
v -0.027614 -0.055414 0.013523
v -0.038441 -0.034416 0.015164
v -0.044001 -0.011285 0.016060
v 0.026792 -0.092575 0.004771
v 0.016875 -0.089720 0.006364
v 0.032118 -0.080292 0.000000
v 0.024698 -0.074809 0.000000
v 0.046790 0.094847 -0.001799
v -0.044541 0.000000 -0.016153
v -0.042004 0.023149 -0.015738
v -0.033654 0.045281 -0.014402
v -0.020848 0.064520 -0.012422
v -0.003313 0.079937 -0.009606
v 0.037082 0.094265 -0.003118
v 0.056499 0.094314 -0.000878
v 0.006674 0.085610 -0.008002
v -0.012352 0.073144 -0.010998
v -0.027614 0.055414 -0.013523
v -0.038441 0.034416 -0.015164
v -0.044001 0.011285 -0.016060
v 0.026792 0.092575 -0.004771
v 0.016875 0.089720 -0.006364
v 0.046790 -0.094847 -0.001799
v -0.042004 -0.023149 -0.015738
v -0.033654 -0.045281 -0.014402
v -0.020848 -0.064520 -0.012422
v -0.003313 -0.079937 -0.009606
v 0.037082 -0.094265 -0.003118
v 0.056499 -0.094314 -0.000878
v 0.006674 -0.085610 -0.008002
v -0.012352 -0.073144 -0.010998
v -0.027614 -0.055414 -0.013523
v -0.038441 -0.034416 -0.015164
v -0.044001 -0.011285 -0.016060
v 0.026792 -0.092575 -0.004771
v 0.016875 -0.089720 -0.006364
vn -0.5417 0.0749 0.8372
vn -0.5418 0.0735 0.8373
vn -0.5451 -0.0000 0.8383
vn -0.5046 0.2375 0.8301
vn -0.5060 0.2337 0.8303
vn -0.5293 0.1543 0.8343
vn -0.5284 0.1582 0.8341
vn -0.4361 0.3739 0.8185
vn -0.4391 0.3694 0.8190
vn -0.4761 0.3036 0.8253
vn -0.4739 0.3081 0.8249
vn -0.3161 0.4938 0.8101
vn -0.3215 0.4899 0.8104
vn -0.3882 0.4326 0.8137
vn -0.3854 0.4354 0.8136
vn -0.1645 0.5623 0.8104
vn -0.1715 0.5613 0.8096
vn -0.2458 0.5367 0.8072
vn -0.2402 0.5394 0.8070
vn 0.1144 0.3574 0.9269
vn 0.1062 0.3759 0.9206
vn 0.1072 0.3737 0.9214
vn 0.0550 -0.2310 0.9714
vn 0.1038 -0.2483 0.9631
vn 0.1067 -0.2494 0.9625
vn 0.0569 -0.2316 0.9712
vn 0.1580 -0.2676 0.9505
vn 0.1578 -0.2675 0.9505
vn 0.0808 0.4293 0.8995
vn 0.0369 0.5004 0.8650
vn 0.0430 0.4919 0.8696
vn 0.0832 0.4245 0.9016
vn -0.0234 0.5468 0.8369
vn -0.0137 0.5424 0.8400
vn 0.2728 -0.2543 0.9279
vn 0.2725 -0.2545 0.9279
vn 0.3029 -0.2282 0.9253
vn 0.3031 -0.2279 0.9253
vn 0.2024 -0.2761 0.9396
vn 0.2014 -0.2760 0.9398
vn -0.0947 0.5636 0.8206
vn -0.0875 0.5629 0.8219
vn 0.3292 -0.1962 0.9237
vn 0.3286 -0.1969 0.9237
vn 0.3499 -0.1671 0.9218
vn 0.3500 -0.1669 0.9218
vn 0.3639 -0.1410 0.9207
vn 0.3637 -0.1415 0.9207
vn 0.3739 -0.1109 0.9208
vn 0.3741 -0.1103 0.9208
vn 0.3807 -0.0804 0.9212
vn 0.3807 -0.0808 0.9212
vn 0.3848 -0.0528 0.9215
vn 0.3848 -0.0525 0.9215
vn 0.3876 -0.0236 0.9215
vn 0.3876 -0.0237 0.9215
vn 0.3883 -0.0000 0.9215
vn 0.0339 -0.2243 0.9739
vn 0.2380 -0.2716 0.9325
vn 0.2381 -0.2716 0.9325
vn 0.3292 0.1962 0.9237
vn 0.3500 0.1669 0.9218
vn 0.3499 0.1671 0.9218
vn 0.3286 0.1969 0.9237
vn 0.3031 0.2279 0.9253
vn 0.3029 0.2282 0.9253
vn 0.0808 -0.4293 0.8995
vn 0.0832 -0.4245 0.9016
vn 0.0430 -0.4919 0.8696
vn 0.0369 -0.5004 0.8650
vn -0.5417 -0.0749 0.8372
vn -0.5418 -0.0735 0.8373
vn -0.2402 -0.5394 0.8070
vn -0.3161 -0.4938 0.8101
vn -0.3215 -0.4899 0.8104
vn -0.2458 -0.5367 0.8072
vn 0.3639 0.1410 0.9207
vn 0.3637 0.1415 0.9207
vn -0.0137 -0.5424 0.8400
vn -0.0234 -0.5468 0.8369
vn 0.3848 0.0525 0.9215
vn 0.3876 0.0236 0.9215
vn 0.3876 0.0237 0.9215
vn 0.3848 0.0528 0.9215
vn 0.3741 0.1103 0.9208
vn 0.3807 0.0804 0.9212
vn 0.3807 0.0808 0.9212
vn 0.3739 0.1109 0.9208
vn -0.3854 -0.4354 0.8136
vn -0.4361 -0.3739 0.8185
vn -0.4391 -0.3694 0.8190
vn -0.3882 -0.4326 0.8137
vn -0.4739 -0.3081 0.8249
vn -0.5046 -0.2375 0.8301
vn -0.5060 -0.2337 0.8303
vn -0.4761 -0.3036 0.8253
vn 0.2728 0.2543 0.9279
vn 0.2725 0.2545 0.9279
vn -0.5284 -0.1582 0.8341
vn -0.5293 -0.1543 0.8343
vn 0.0550 0.2310 0.9714
vn 0.0569 0.2316 0.9712
vn 0.1067 0.2494 0.9625
vn 0.1038 0.2483 0.9631
vn 0.2380 0.2716 0.9325
vn 0.2381 0.2716 0.9325
vn 0.2014 0.2760 0.9398
vn 0.2024 0.2761 0.9396
vn 0.0339 0.2243 0.9739
vn -0.0875 -0.5629 0.8219
vn -0.1645 -0.5623 0.8104
vn -0.1715 -0.5613 0.8096
vn -0.0947 -0.5636 0.8206
vn 0.1578 0.2675 0.9505
vn 0.1580 0.2676 0.9505
vn 0.1062 -0.3759 0.9206
vn 0.1072 -0.3737 0.9214
vn 0.1144 -0.3574 0.9269
vn 0.0369 0.5004 -0.8650
vn 0.0430 0.4919 -0.8696
vn -0.0137 0.5424 -0.8400
vn -0.0234 0.5468 -0.8369
vn 0.0808 0.4293 -0.8995
vn 0.0832 0.4245 -0.9016
vn -0.5417 0.0749 -0.8372
vn -0.5451 -0.0000 -0.8383
vn -0.5418 0.0735 -0.8373
vn -0.4739 0.3081 -0.8249
vn -0.5046 0.2375 -0.8301
vn -0.5060 0.2337 -0.8303
vn -0.4761 0.3036 -0.8253
vn 0.0550 -0.2310 -0.9714
vn 0.0569 -0.2316 -0.9712
vn 0.1067 -0.2494 -0.9625
vn 0.1038 -0.2483 -0.9631
vn 0.3848 -0.0525 -0.9215
vn 0.3876 -0.0236 -0.9215
vn 0.3876 -0.0237 -0.9215
vn 0.3848 -0.0528 -0.9215
vn -0.1645 0.5623 -0.8104
vn -0.2402 0.5394 -0.8070
vn -0.2458 0.5367 -0.8072
vn -0.1715 0.5613 -0.8096
vn -0.3161 0.4938 -0.8101
vn -0.3215 0.4899 -0.8104
vn 0.3292 -0.1962 -0.9237
vn 0.3500 -0.1669 -0.9218
vn 0.3499 -0.1671 -0.9218
vn 0.3286 -0.1969 -0.9237
vn 0.1578 -0.2675 -0.9505
vn 0.2014 -0.2760 -0.9398
vn 0.2024 -0.2761 -0.9396
vn 0.1580 -0.2676 -0.9505
vn 0.3639 -0.1410 -0.9207
vn 0.3637 -0.1415 -0.9207
vn 0.3807 -0.0804 -0.9212
vn 0.3807 -0.0808 -0.9212
vn 0.3741 -0.1103 -0.9208
vn 0.3739 -0.1109 -0.9208
vn 0.1062 0.3759 -0.9206
vn 0.1072 0.3737 -0.9214
vn -0.5284 0.1582 -0.8341
vn -0.5293 0.1543 -0.8343
vn -0.3854 0.4354 -0.8136
vn -0.4361 0.3739 -0.8185
vn -0.4391 0.3694 -0.8190
vn -0.3882 0.4326 -0.8137
vn 0.3883 -0.0000 -0.9215
vn 0.2728 -0.2543 -0.9279
vn 0.3031 -0.2279 -0.9253
vn 0.3029 -0.2282 -0.9253
vn 0.2725 -0.2545 -0.9279
vn 0.0339 -0.2243 -0.9739
vn -0.0947 0.5636 -0.8206
vn -0.0875 0.5629 -0.8219
vn 0.1144 0.3574 -0.9269
vn 0.2380 -0.2716 -0.9325
vn 0.2381 -0.2716 -0.9325
vn -0.3854 -0.4354 -0.8136
vn -0.3882 -0.4326 -0.8137
vn -0.4391 -0.3694 -0.8190
vn -0.4361 -0.3739 -0.8185
vn 0.2014 0.2760 -0.9398
vn 0.2024 0.2761 -0.9396
vn 0.2381 0.2716 -0.9325
vn 0.2380 0.2716 -0.9325
vn -0.4761 -0.3036 -0.8253
vn -0.4739 -0.3081 -0.8249
vn 0.2728 0.2543 -0.9279
vn 0.2725 0.2545 -0.9279
vn 0.3029 0.2282 -0.9253
vn 0.3031 0.2279 -0.9253
vn -0.2402 -0.5394 -0.8070
vn -0.2458 -0.5367 -0.8072
vn -0.3215 -0.4899 -0.8104
vn -0.3161 -0.4938 -0.8101
vn 0.1062 -0.3759 -0.9206
vn 0.0808 -0.4293 -0.8995
vn 0.0832 -0.4245 -0.9016
vn 0.1072 -0.3737 -0.9214
vn 0.3500 0.1669 -0.9218
vn 0.3499 0.1671 -0.9218
vn 0.3637 0.1415 -0.9207
vn 0.3639 0.1410 -0.9207
vn 0.3292 0.1962 -0.9237
vn 0.3286 0.1969 -0.9237
vn -0.5284 -0.1582 -0.8341
vn -0.5293 -0.1543 -0.8343
vn -0.5418 -0.0735 -0.8373
vn -0.5417 -0.0749 -0.8372
vn 0.0569 0.2316 -0.9712
vn 0.0339 0.2243 -0.9739
vn 0.0550 0.2310 -0.9714
vn 0.3739 0.1109 -0.9208
vn 0.3741 0.1103 -0.9208
vn 0.1144 -0.3574 -0.9269
vn 0.3848 0.0525 -0.9215
vn 0.3848 0.0528 -0.9215
vn 0.3876 0.0237 -0.9215
vn 0.3876 0.0236 -0.9215
vn -0.5060 -0.2337 -0.8303
vn -0.5046 -0.2375 -0.8301
vn 0.1578 0.2675 -0.9505
vn 0.1580 0.2676 -0.9505
vn -0.0947 -0.5636 -0.8206
vn -0.0875 -0.5629 -0.8219
vn -0.0137 -0.5424 -0.8400
vn -0.0234 -0.5468 -0.8369
vn 0.3807 0.0804 -0.9212
vn 0.3807 0.0808 -0.9212
vn 0.1038 0.2483 -0.9631
vn 0.1067 0.2494 -0.9625
vn -0.1645 -0.5623 -0.8104
vn -0.1715 -0.5613 -0.8096
vn 0.0369 -0.5004 -0.8650
vn 0.0430 -0.4919 -0.8696
vt 0.143974 0.551203
vt 0.008780 0.562938
vt 0.004896 0.499856
vt 0.141652 0.499856
vt 0.167200 0.657054
vt 0.044959 0.693227
vt 0.021811 0.627647
vt 0.152323 0.605272
vt 0.212903 0.755259
vt 0.114831 0.808395
vt 0.076147 0.752667
vt 0.187332 0.707523
vt 0.278399 0.841390
vt 0.212632 0.902999
vt 0.161795 0.859759
vt 0.241768 0.798856
vt 0.362060 0.907211
vt 0.324566 0.961775
vt 0.267838 0.936460
vt 0.317834 0.876368
vt 0.655535 0.976418
vt 0.593075 0.988267
vt 0.593581 0.976893
vt 0.547262 0.973293
vt 0.554995 0.939741
vt 0.595762 0.958408
vt 0.501342 0.964555
vt 0.521744 0.919126
vt 0.544295 0.994300
vt 0.491003 0.994824
vt 0.433557 0.989808
vt 0.453385 0.950429
vt 0.429733 0.829510
vt 0.406551 0.794809
vt 0.489234 0.893637
vt 0.382259 0.980343
vt 0.408006 0.931594
vt 0.387295 0.757911
vt 0.372033 0.722209
vt 0.358481 0.684428
vt 0.348753 0.647087
vt 0.341714 0.608657
vt 0.336867 0.571876
vt 0.334142 0.536116
vt 0.333486 0.499857
vt 0.457974 0.863035
vt 0.387295 0.241802
vt 0.372033 0.277504
vt 0.241768 0.200857
vt 0.278400 0.158323
vt 0.406551 0.204904
vt 0.317834 0.123345
vt 0.544295 0.005413
vt 0.547262 0.026420
vt 0.501342 0.035158
vt 0.491003 0.004889
vt 0.143974 0.448510
vt 0.008780 0.436775
vt 0.212633 0.096714
vt 0.267838 0.063253
vt 0.358481 0.315285
vt 0.212903 0.244454
vt 0.453385 0.049284
vt 0.433557 0.009906
vt 0.336867 0.427837
vt 0.334142 0.463597
vt 0.152323 0.394441
vt 0.348753 0.352626
vt 0.341714 0.391057
vt 0.167200 0.342659
vt 0.187332 0.292190
vt 0.114831 0.191318
vt 0.161795 0.139954
vt 0.044960 0.306486
vt 0.076148 0.247046
vt 0.429733 0.170203
vt 0.362060 0.092503
vt 0.021811 0.372066
vt 0.593581 0.022820
vt 0.595762 0.041305
vt 0.554995 0.059972
vt 0.457974 0.136678
vt 0.408006 0.068119
vt 0.489234 0.106076
vt 0.655535 0.023295
vt 0.324566 0.037938
vt 0.382260 0.019371
vt 0.521744 0.080587
vt 0.593075 0.011446
vt 0.829364 0.004889
vt 0.839703 0.035158
vt 0.791746 0.049284
vt 0.771918 0.009906
vt 0.882656 0.005413
vt 0.885623 0.026420
vt 0.482335 0.448510
vt 0.480013 0.499857
vt 0.343257 0.499857
vt 0.347141 0.436775
vt 0.525693 0.292190
vt 0.505561 0.342659
vt 0.383320 0.306486
vt 0.414509 0.247047
vt 0.931941 0.022820
vt 0.934123 0.041305
vt 0.893356 0.059972
vt 0.675228 0.427838
vt 0.672503 0.463597
vt 0.490684 0.394441
vt 0.700421 0.092503
vt 0.656195 0.123345
vt 0.606199 0.063253
vt 0.662927 0.037938
vt 0.616761 0.158323
vt 0.550994 0.096714
vt 0.725656 0.241802
vt 0.710394 0.277504
vt 0.580129 0.200857
vt 0.860106 0.080587
vt 0.827595 0.106076
vt 0.696842 0.315286
vt 0.551264 0.244454
vt 0.680075 0.391057
vt 0.687114 0.352626
vt 0.931436 0.011446
vt 0.360172 0.372066
vt 0.453192 0.191318
vt 0.500156 0.139955
vt 0.671847 0.499857
vt 0.768094 0.170203
vt 0.744912 0.204904
vt 0.993896 0.023295
vt 0.720621 0.019371
vt 0.746367 0.068119
vt 0.796335 0.136678
vt 0.580129 0.798856
vt 0.500156 0.859759
vt 0.453192 0.808395
vt 0.551264 0.755260
vt 0.827595 0.893638
vt 0.791746 0.950429
vt 0.746366 0.931594
vt 0.796335 0.863035
vt 0.414508 0.752667
vt 0.525692 0.707524
vt 0.768094 0.829510
vt 0.700420 0.907211
vt 0.656195 0.876369
vt 0.744912 0.794809
vt 0.606199 0.936460
vt 0.550993 0.902999
vt 0.616760 0.841390
vt 0.931436 0.988267
vt 0.882656 0.994300
vt 0.885623 0.973293
vt 0.931941 0.976893
vt 0.710393 0.722209
vt 0.696842 0.684428
vt 0.725656 0.757911
vt 0.490684 0.605272
vt 0.360172 0.627647
vt 0.347141 0.562938
vt 0.482335 0.551203
vt 0.934123 0.958408
vt 0.993896 0.976418
vt 0.687113 0.647087
vt 0.675228 0.571876
vt 0.672503 0.536116
vt 0.383320 0.693228
vt 0.505560 0.657054
vt 0.860105 0.919126
vt 0.839703 0.964555
vt 0.720620 0.980343
vt 0.771918 0.989808
vt 0.680075 0.608657
vt 0.893356 0.939741
vt 0.662926 0.961775
vt 0.829364 0.994824
s 1
f 42/1/1 21/2/2 3/3/3 31/4/3
f 41/5/4 22/6/5 4/7/6 32/8/7
f 40/9/8 23/10/9 5/11/10 33/12/11
f 39/13/12 24/14/13 6/15/14 34/16/15
f 38/17/16 25/18/17 7/19/18 35/20/19
f 19/21/20 2/22/21 37/23/22
f 37/23/23 20/24/24 13/25/25 12/26/26
f 20/24/24 36/27/27 11/28/28 13/25/25
f 1/29/29 10/30/30 36/27/31 20/24/32
f 2/22/21 1/29/29 20/24/32 37/23/22
f 10/30/30 9/31/33 43/32/34 36/27/31
f 30/33/35 38/17/36 35/20/37 18/34/38
f 11/28/28 36/27/27 43/32/39 45/35/40
f 8/36/41 44/37/42 43/32/34 9/31/33
f 29/38/43 39/13/44 34/16/45 17/39/46
f 18/34/38 35/20/37 39/13/44 29/38/43
f 35/20/19 7/19/18 24/14/13 39/13/12
f 28/40/47 40/9/48 33/12/49 16/41/50
f 17/39/46 34/16/45 40/9/48 28/40/47
f 34/16/15 6/15/14 23/10/9 40/9/8
f 27/42/51 41/5/52 32/8/53 15/43/54
f 16/41/50 33/12/49 41/5/52 27/42/51
f 33/12/11 5/11/10 22/6/5 41/5/4
f 26/44/55 42/1/56 31/4/57 14/45/57
f 15/43/54 32/8/53 42/1/56 26/44/55
f 32/8/7 4/7/6 21/2/2 42/1/1
f 12/26/26 19/21/58 37/23/23
f 46/46/59 44/37/60 38/17/36 30/33/35
f 45/35/40 43/32/39 44/37/60 46/46/59
f 44/37/42 8/36/41 25/18/17 38/17/16
f 73/47/61 61/48/62 77/49/63 82/50/64
f 62/51/65 73/47/61 82/50/64 78/52/66
f 47/53/67 64/54/68 79/55/69 55/56/70
f 85/57/71 31/4/3 3/3/3 65/58/72
f 78/52/73 82/50/74 68/59/75 52/60/76
f 61/48/62 72/61/77 83/62/78 77/49/63
f 55/56/70 79/55/69 86/63/79 54/64/80
f 59/65/81 70/66/82 85/57/83 75/67/84
f 60/68/85 71/69/86 84/70/87 76/71/88
f 77/49/89 83/62/90 67/72/91 51/73/92
f 76/71/93 84/70/94 66/74/95 50/75/96
f 71/69/86 59/65/81 75/67/84 84/70/87
f 74/76/97 62/51/65 78/52/66 81/77/98
f 75/67/99 85/57/71 65/58/72 49/78/100
f 83/62/90 76/71/93 50/75/96 67/72/91
f 80/79/101 57/80/102 58/81/103 64/54/104
f 89/82/105 74/76/97 81/77/98 87/83/106
f 88/84/107 89/82/105 87/83/106 86/63/108
f 57/80/102 80/79/101 63/85/109
f 87/83/110 81/77/111 69/86/112 53/87/113
f 70/66/82 14/45/57 31/4/57 85/57/83
f 84/70/94 75/67/99 49/78/100 66/74/95
f 82/50/74 77/49/89 51/73/92 68/59/75
f 56/88/114 88/84/107 86/63/108 79/55/115
f 64/54/104 58/81/103 56/88/114 79/55/115
f 53/87/113 54/64/80 86/63/79 87/83/110
f 81/77/111 78/52/73 52/60/76 69/86/112
f 48/89/116 80/79/117 64/54/68 47/53/67
f 72/61/77 60/68/85 76/71/88 83/62/78
f 63/85/118 80/79/117 48/89/116
f 10/90/119 96/91/120 103/92/121 9/93/122
f 1/94/123 90/95/124 96/91/120 10/90/119
f 102/96/125 91/97/126 3/98/126 21/99/127
f 93/100/128 101/101/129 22/102/130 5/103/131
f 97/104/132 12/105/133 13/106/134 90/95/135
f 15/107/136 26/108/137 102/96/138 92/109/139
f 98/110/140 95/111/141 7/112/142 25/113/143
f 95/111/141 99/114/144 24/115/145 7/112/142
f 29/116/146 17/117/147 94/118/148 99/114/149
f 11/119/150 45/120/151 103/92/152 96/91/153
f 17/117/147 28/121/154 100/122/155 94/118/148
f 27/123/156 15/107/136 92/109/139 101/101/157
f 28/121/154 16/124/158 93/100/159 100/122/155
f 2/125/160 97/104/161 90/95/124 1/94/123
f 101/101/129 92/109/162 4/126/163 22/102/130
f 94/118/164 100/122/165 23/127/166 6/128/167
f 100/122/165 93/100/128 5/103/131 23/127/166
f 92/109/162 102/96/125 21/99/127 4/126/163
f 26/108/137 14/129/168 91/97/168 102/96/138
f 99/114/144 94/118/164 6/128/167 24/115/145
f 30/130/169 18/131/170 95/111/171 98/110/172
f 90/95/135 13/106/134 11/119/150 96/91/153
f 12/105/133 97/104/132 19/132/173
f 16/124/158 27/123/156 101/101/157 93/100/159
f 18/131/170 29/116/146 99/114/149 95/111/171
f 8/133/174 9/93/122 103/92/121 104/134/175
f 19/132/176 97/104/161 2/125/160
f 45/120/151 46/135/177 104/134/178 103/92/152
f 46/135/177 30/130/169 98/110/172 104/134/178
f 104/134/175 98/110/140 25/113/143 8/133/174
f 108/136/179 51/137/180 67/138/181 114/139/182
f 88/140/183 117/141/184 118/142/185 89/143/186
f 114/139/182 67/138/181 50/144/187 107/145/188
f 74/146/189 112/147/190 109/148/191 62/149/192
f 109/148/193 52/150/194 68/151/195 113/152/196
f 113/152/196 68/151/195 51/137/180 108/136/179
f 48/153/197 47/154/198 105/155/199 111/156/200
f 61/157/201 108/136/202 114/139/203 72/158/204
f 73/159/205 113/152/206 108/136/202 61/157/201
f 106/160/207 49/161/208 65/162/209 116/163/210
f 57/164/211 63/165/212 111/156/213
f 72/158/204 114/139/203 107/145/214 60/166/215
f 63/165/216 48/153/197 111/156/200
f 59/167/217 106/160/218 116/163/219 70/168/220
f 62/149/192 109/148/191 113/152/206 73/159/205
f 107/145/188 50/144/187 66/169/221 115/170/222
f 56/171/223 110/172/224 117/141/184 88/140/183
f 53/173/225 118/142/226 117/141/227 54/174/228
f 115/170/222 66/169/221 49/161/208 106/160/207
f 71/175/229 115/170/230 106/160/218 59/167/217
f 111/156/213 105/155/231 58/176/232 57/164/211
f 70/168/220 116/163/219 91/97/168 14/129/168
f 112/147/233 69/177/234 52/150/194 109/148/193
f 60/166/215 107/145/214 115/170/230 71/175/229
f 105/155/231 110/172/224 56/171/223 58/176/232
f 89/143/186 118/142/185 112/147/190 74/146/189
f 47/154/198 55/178/235 110/172/236 105/155/199
f 55/178/235 54/174/228 117/141/227 110/172/236
f 118/142/226 53/173/225 69/177/234 112/147/233
f 116/163/210 65/162/209 3/98/126 91/97/126
