# Blender 4.0.2
# www.blender.org
o pyramid_spike
v -0.000000 0.000000 -0.018269
v -0.001061 0.001061 -0.017984
v 0.001061 0.001061 -0.017984
v -0.000831 0.000311 -0.018427
v -0.000000 0.000494 -0.018730
v -0.000000 0.001281 -0.018204
v 0.000831 0.000311 -0.018427
v 0.018269 0.000000 0.000000
v 0.017984 0.001061 -0.001061
v 0.017984 0.001061 0.001061
v 0.018427 0.000311 -0.000831
v 0.018730 0.000494 0.000000
v 0.018204 0.001281 0.000000
v 0.018427 0.000311 0.000831
v -0.000000 0.000000 0.018269
v 0.001061 0.001061 0.017984
v -0.001061 0.001061 0.017984
v 0.000831 0.000311 0.018427
v -0.000000 0.000494 0.018730
v -0.000000 0.001281 0.018204
v -0.000831 0.000311 0.018427
v -0.018269 0.000000 0.000000
v -0.017985 0.001061 0.001061
v -0.017985 0.001061 -0.001061
v -0.018427 0.000311 0.000831
v -0.018730 0.000494 0.000000
v -0.018204 0.001281 0.000000
v -0.018427 0.000311 -0.000831
v -0.001061 0.017984 -0.001061
v -0.001061 0.017984 0.001061
v 0.001061 0.017984 0.001061
v 0.001061 0.017984 -0.001061
v -0.001281 0.018204 0.000000
v -0.000000 0.018762 0.000000
v -0.000000 0.018204 0.001281
v 0.001281 0.018204 0.000000
v -0.000000 0.018204 -0.001281
vn -0.6007 0.5676 -0.5630
vn -0.5644 0.6024 -0.5644
vn -0.5630 0.5676 -0.6007
vn -0.5630 0.5676 0.6007
vn -0.5644 0.6024 0.5644
vn -0.6007 0.5676 0.5630
vn 0.5630 0.5676 -0.6007
vn 0.5644 0.6024 -0.5644
vn 0.6007 0.5676 -0.5630
vn 0.6007 0.5676 0.5630
vn 0.5644 0.6024 0.5644
vn 0.5630 0.5676 0.6007
vn -0.0001 -0.9999 -0.0164
vn -0.6144 -0.4579 -0.6425
vn 0.0001 0.2400 -0.9708
vn -0.0000 0.7009 -0.7132
vn 0.6144 -0.4579 -0.6425
vn 0.0164 -0.9999 -0.0001
vn 0.6425 -0.4579 -0.6144
vn 0.9708 0.2400 0.0001
vn 0.7132 0.7009 -0.0000
vn 0.6425 -0.4579 0.6144
vn 0.0001 -0.9999 0.0164
vn 0.6144 -0.4579 0.6425
vn -0.0001 0.2400 0.9708
vn -0.0000 0.7009 0.7132
vn -0.6144 -0.4579 0.6425
vn -0.0164 -0.9999 0.0001
vn -0.6425 -0.4579 0.6144
vn -0.9708 0.2400 -0.0001
vn -0.7132 0.7009 -0.0000
vn -0.6425 -0.4579 -0.6144
vn -0.6908 0.7231 0.0001
vn -0.0000 1.0000 -0.0000
vn -0.0000 0.7231 -0.6908
vn -0.0000 0.7231 0.6908
vn 0.6908 0.7231 -0.0000
vt 0.344795 0.471789
vt 0.345663 0.169367
vt 0.626743 0.389039
vt 0.034798 0.388605
vt 0.316191 0.169427
vt 0.316786 0.471691
vt 0.963697 0.124829
vt 0.682302 0.344005
vt 0.681708 0.041742
vt 0.653698 0.041644
vt 0.652829 0.344065
vt 0.371752 0.124393
vt 0.646537 0.404265
vt 0.635397 0.397351
vt 0.647887 0.392830
vt 0.640421 0.378290
vt 0.971897 0.116902
vt 0.984481 0.121195
vt 0.977045 0.135385
vt 0.667591 0.016861
vt 0.678875 0.030335
vt 0.667591 0.030632
vt 0.667591 0.042317
vt 0.656582 0.030723
vt 0.351958 0.109167
vt 0.363098 0.116082
vt 0.350608 0.120603
vt 0.358074 0.135142
vt 0.026598 0.396533
vt 0.014015 0.392240
vt 0.021451 0.378049
vt 0.330902 0.496572
vt 0.319618 0.483098
vt 0.330902 0.482801
vt 0.330902 0.471116
vt 0.341911 0.482711
vt 0.330902 0.169808
vt 0.330902 0.148537
vt 0.353205 0.154479
vt 0.308499 0.154365
vt 0.667591 0.343624
vt 0.667591 0.364896
vt 0.645287 0.358954
vt 0.689994 0.359067
vt 0.983168 0.109516
vt 0.015328 0.403919
vt 0.028753 0.780243
vt 0.028753 0.516333
vt 0.292664 0.516333
vt 0.292664 0.780243
s 1
f 24/1/1 29/2/2 2/3/3
f 17/4/4 30/5/5 23/6/6
f 3/7/7 32/8/8 9/9/9
f 10/10/10 31/11/11 16/12/12
f 1/13/13 4/14/14 5/15/15
f 2/3/3 6/16/16 5/15/15 4/14/14
f 3/7/7 7/17/17 5/18/15 6/19/16
f 8/20/18 11/21/19 12/22/20
f 9/9/9 13/23/21 12/22/20 11/21/19
f 10/10/10 14/24/22 12/22/20 13/23/21
f 15/25/23 18/26/24 19/27/25
f 16/12/12 20/28/26 19/27/25 18/26/24
f 17/4/4 21/29/27 19/30/25 20/31/26
f 22/32/28 25/33/29 26/34/30
f 23/6/6 27/35/31 26/34/30 25/33/29
f 24/1/1 28/36/32 26/34/30 27/35/31
f 29/2/2 33/37/33 34/38/34 37/39/35
f 30/5/5 35/40/36 34/38/34 33/37/33
f 31/11/11 36/41/37 34/42/34 35/43/36
f 32/8/8 37/44/35 34/42/34 36/41/37
f 3/7/7 9/9/9 11/21/19 7/17/17
f 7/17/17 11/21/19 8/20/18 1/45/13
f 2/3/3 29/2/2 37/39/35 6/16/16
f 6/19/16 37/44/35 32/8/8 3/7/7
f 31/11/11 10/10/10 13/23/21 36/41/37
f 36/41/37 13/23/21 9/9/9 32/8/8
f 10/10/10 16/12/12 18/26/24 14/24/22
f 14/24/22 18/26/24 15/25/23 8/20/18
f 30/5/5 17/4/4 20/31/26 35/40/36
f 35/43/36 20/28/26 16/12/12 31/11/11
f 17/4/4 23/6/6 25/33/29 21/29/27
f 21/29/27 25/33/29 22/32/28 15/46/23
f 29/2/2 24/1/1 27/35/31 33/37/33
f 33/37/33 27/35/31 23/6/6 30/5/5
f 24/1/1 2/3/3 4/14/14 28/36/32
f 28/36/32 4/14/14 1/13/13 22/32/28
f 1/47/13 8/48/18 15/49/23 22/50/28
f 14/24/22 8/20/18 12/22/20
f 7/17/17 1/45/13 5/18/15
f 28/36/32 22/32/28 26/34/30
f 21/29/27 15/46/23 19/30/25
