# Blender 4.0.2
# www.blender.org
o stone_tomb_01
v -1.103158 0.000000 -0.465098
v -1.103158 0.145006 -0.465098
v 1.103158 0.000000 -0.465098
v 1.103158 0.145006 -0.465098
v -1.103158 0.000000 0.465098
v -1.103158 0.145006 0.465098
v 1.103158 0.000000 0.465098
v 1.103158 0.145006 0.465098
v -1.020458 0.145006 -0.367171
v -1.020458 0.729418 -0.367171
v 1.020458 0.145006 -0.367171
v 1.020458 0.729418 -0.367171
v -1.020458 0.145006 0.367171
v -1.020458 0.729418 0.367171
v 1.020458 0.145006 0.367171
v 1.020458 0.729418 0.367171
v -0.959458 0.729418 -0.306171
v 0.959458 0.729418 -0.306171
v -0.959458 0.729418 0.306171
v 0.959458 0.729418 0.306171
v -0.959458 0.223602 -0.306171
v 0.959458 0.223602 -0.306171
v -0.959458 0.223602 0.306171
v 0.959458 0.223602 0.306171
vn -0.0000 -0.0000 -1.0000
vn 1.0000 -0.0000 -0.0000
vn -0.0000 -0.0000 1.0000
vn -0.0000 -1.0000 -0.0000
vn -1.0000 -0.0000 -0.0000
vn -0.0000 1.0000 -0.0000
vt 0.982899 0.936879
vt 0.982899 0.968760
vt 0.497802 0.968760
vt 0.497802 0.936879
vt 0.977645 0.756884
vt 0.977645 0.788766
vt 0.773126 0.788766
vt 0.773126 0.756884
vt 0.489983 0.936884
vt 0.489983 0.968766
vt 0.004886 0.968766
vt 0.004886 0.936884
vt 0.621197 0.004879
vt 0.825720 0.004879
vt 0.825720 0.489983
vt 0.621197 0.489983
vt 0.209400 0.520879
vt 0.209400 0.552761
vt 0.004881 0.552761
vt 0.004881 0.520879
vt 0.677094 0.498885
vt 0.677094 0.627380
vt 0.228360 0.627380
vt 0.228360 0.498886
vt 0.994989 0.462883
vt 0.994989 0.591376
vt 0.833532 0.591376
vt 0.833532 0.462883
vt 0.453594 0.636887
vt 0.453593 0.765375
vt 0.004879 0.765375
vt 0.004879 0.636887
vt 0.622863 0.756884
vt 0.622863 0.885376
vt 0.461407 0.885376
vt 0.461407 0.756884
vt 0.995014 0.004882
vt 0.995014 0.453706
vt 0.981599 0.440291
vt 0.981599 0.018296
vt 0.833522 0.004882
vt 0.846937 0.018296
vt 0.833522 0.453706
vt 0.846937 0.440291
vt 0.426790 0.886099
vt 0.004886 0.886099
vt 0.004886 0.774887
vt 0.426790 0.774887
vt 0.819536 0.610090
vt 0.684901 0.610090
vt 0.684901 0.498878
vt 0.819536 0.498878
vt 0.883309 0.748096
vt 0.461405 0.748096
vt 0.461405 0.636884
vt 0.883309 0.636884
vt 0.765307 0.868089
vt 0.630678 0.868089
vt 0.630678 0.756881
vt 0.765307 0.756881
vt 0.263904 0.457442
vt 0.263904 0.035535
vt 0.398538 0.035535
vt 0.398538 0.457442
vt 0.432888 0.004881
vt 0.411357 0.023064
vt 0.249898 0.023064
vt 0.228367 0.004881
vt 0.432888 0.489982
vt 0.411357 0.471799
vt 0.228367 0.489982
vt 0.249898 0.471799
s 0
f 1/1/1 2/2/1 4/3/1 3/4/1
f 3/5/2 4/6/2 8/7/2 7/8/2
f 7/9/3 8/10/3 6/11/3 5/12/3
f 3/13/4 7/14/4 5/15/4 1/16/4
f 5/17/5 6/18/5 2/19/5 1/20/5
f 9/21/1 10/22/1 12/23/1 11/24/1
f 11/25/2 12/26/2 16/27/2 15/28/2
f 15/29/3 16/30/3 14/31/3 13/32/3
f 13/33/5 14/34/5 10/35/5 9/36/5
f 14/37/6 16/38/6 20/39/6 19/40/6
f 10/41/6 14/37/6 19/40/6 17/42/6
f 12/43/6 10/41/6 17/42/6 18/44/6
f 16/38/6 12/43/6 18/44/6 20/39/6
f 18/45/3 17/46/3 21/47/3 22/48/3
f 20/49/5 18/50/5 22/51/5 24/52/5
f 19/53/1 20/54/1 24/55/1 23/56/1
f 17/57/2 19/58/2 23/59/2 21/60/2
f 22/61/6 21/62/6 23/63/6 24/64/6
f 6/65/6 13/66/6 9/67/6 2/68/6
f 8/69/6 15/70/6 13/66/6 6/65/6
f 4/71/6 11/72/6 15/70/6 8/69/6
f 2/68/6 9/67/6 11/72/6 4/71/6
o stone_tomb_lid_01
v -0.809189 1.086048 -0.109267
v 0.809189 1.086048 -0.109267
v 0.809189 1.086048 0.109267
v -0.809189 1.086048 0.109267
v -1.077142 0.870786 -0.423855
v 1.077142 0.870786 -0.423855
v 1.077142 0.870786 0.423855
v -1.077142 0.870786 0.423855
v -1.077142 0.760569 -0.423855
v -1.045991 0.729418 -0.392704
v 1.045991 0.729418 -0.392704
v 1.077142 0.760569 -0.423855
v 1.077142 0.760569 0.423855
v 1.045991 0.729418 0.392704
v -1.045991 0.729418 0.392704
v -1.077142 0.760569 0.423855
vn -0.0000 1.0000 -0.0000
vn 0.6263 0.7796 -0.0000
vn -0.0000 -0.0000 1.0000
vn -0.0000 0.8253 -0.5647
vn -0.6263 0.7796 -0.0000
vn -0.0000 -1.0000 -0.0000
vn -1.0000 -0.0000 -0.0000
vn 1.0000 -0.0000 -0.0000
vn -0.0000 0.8253 0.5647
vn 0.7071 -0.7071 -0.0000
vn -0.7071 -0.7071 -0.0000
vn -0.0000 -0.7071 -0.7071
vn -0.0000 -0.7071 0.7071
vn -0.0000 -0.0000 -1.0000
vt 0.136738 0.436273
vt 0.088690 0.436273
vt 0.088690 0.080450
vt 0.136738 0.080450
vt 0.205904 0.511843
vt 0.019523 0.511843
vt 0.004886 0.904568
vt 0.478577 0.904568
vt 0.478577 0.928803
vt 0.004886 0.928803
vt 0.004881 0.495187
vt 0.004881 0.021537
vt 0.019523 0.004881
vt 0.205904 0.004881
vt 0.613389 0.464834
vt 0.440704 0.464835
vt 0.440704 0.004878
vt 0.613389 0.004878
vt 0.773124 0.806565
vt 0.959519 0.806565
vt 0.959519 0.830800
vt 0.773124 0.830800
vt 0.004881 0.570574
vt 0.191252 0.570573
vt 0.191252 0.594805
vt 0.004881 0.594805
vt 0.220547 0.021537
vt 0.220547 0.495186
vt 0.011730 0.560888
vt 0.184404 0.560888
vt 0.779974 0.796879
vt 0.952670 0.796879
vt 0.960079 0.904566
vt 0.486388 0.904565
vt 0.493238 0.894878
vt 0.953229 0.894878
vt 0.011735 0.894881
vt 0.471727 0.894881
vt 0.960079 0.928801
vt 0.486388 0.928800
s 0
f 27/73/7 26/74/7 25/75/7 28/76/7
f 26/74/8 27/73/8 31/77/8 30/78/8
f 40/79/9 37/80/9 31/81/9 32/82/9
f 25/75/10 26/74/10 30/83/10 29/84/10
f 28/76/11 25/75/11 29/85/11 32/86/11
f 39/87/12 34/88/12 35/89/12 38/90/12
f 33/91/13 40/92/13 32/93/13 29/94/13
f 37/95/14 36/96/14 30/97/14 31/98/14
f 27/73/15 28/76/15 32/99/15 31/100/15
f 36/96/16 37/95/16 38/101/16 35/102/16
f 40/92/17 33/91/17 34/103/17 39/104/17
f 33/105/18 36/106/18 35/107/18 34/108/18
f 37/80/19 40/79/19 39/109/19 38/110/19
f 36/106/20 33/105/20 29/111/20 30/112/20
