# Blender 4.0.2
# www.blender.org
o stone_tile_arrangement_01
v -1.000000 0.000000 1.000000
v 0.323333 0.000000 1.000000
v -1.000000 0.000000 0.343333
v 0.323333 0.000000 0.343333
v 1.000000 0.000000 1.000000
v 0.343333 0.000000 1.000000
v 1.000000 0.000000 -0.323333
v 0.343333 0.000000 -0.323333
v -0.323333 0.000000 0.323333
v -0.323333 0.000000 -0.323333
v 0.323333 0.000000 0.323333
v 0.323333 0.000000 -0.323333
v 1.000000 0.000000 -1.000000
v -0.323333 0.000000 -1.000000
v 1.000000 0.000000 -0.343333
v -0.323333 0.000000 -0.343333
v -1.000000 0.000000 -1.000000
v -0.343333 0.000000 -1.000000
v -1.000000 0.000000 0.323333
v -0.343333 0.000000 0.323333
v -1.000000 0.085000 1.000000
v -0.985000 0.100000 0.985000
v 0.308333 0.100000 0.985000
v 0.323333 0.085000 1.000000
v -1.000000 0.085000 0.343333
v -0.985000 0.100000 0.358333
v 0.323333 0.085000 0.343333
v 0.308333 0.100000 0.358333
v 1.000000 0.085000 1.000000
v 0.985000 0.100000 0.985000
v 0.343333 0.085000 1.000000
v 0.358333 0.100000 0.985000
v 0.985000 0.100000 -0.308333
v 1.000000 0.085000 -0.323333
v 0.358333 0.100000 -0.308333
v 0.343333 0.085000 -0.323333
v -0.323333 0.085000 0.323333
v -0.308333 0.100000 0.308333
v -0.308333 0.100000 -0.308333
v -0.323333 0.085000 -0.323333
v 0.308333 0.100000 0.308333
v 0.323333 0.085000 0.323333
v 0.323333 0.085000 -0.323333
v 0.308333 0.100000 -0.308333
v 1.000000 0.085000 -1.000000
v 0.985000 0.100000 -0.985000
v -0.308333 0.100000 -0.985000
v -0.323333 0.085000 -1.000000
v 1.000000 0.085000 -0.343333
v 0.985000 0.100000 -0.358333
v -0.323333 0.085000 -0.343333
v -0.308333 0.100000 -0.358333
v -1.000000 0.085000 -1.000000
v -0.985000 0.100000 -0.985000
v -0.343333 0.085000 -1.000000
v -0.358333 0.100000 -0.985000
v -0.985000 0.100000 0.308333
v -1.000000 0.085000 0.323333
v -0.358333 0.100000 0.308333
v -0.343333 0.085000 0.323333
vn -0.0000 -0.0000 1.0000
vn 1.0000 -0.0000 -0.0000
vn -0.0000 -0.0000 -1.0000
vn -1.0000 -0.0000 -0.0000
vn -0.0000 1.0000 -0.0000
vn 0.7071 0.7071 -0.0000
vn -0.0000 0.7071 -0.7071
vn -0.7071 0.7071 -0.0000
vn -0.0000 0.7071 0.7071
vt 0.765359 0.490014
vt 0.765359 0.004382
vt 0.796552 0.004382
vt 0.796552 0.490014
vt 0.925187 0.490014
vt 0.925187 0.004382
vt 0.956380 0.004382
vt 0.956380 0.490014
vt 0.764759 0.737239
vt 0.764759 0.499927
vt 0.795952 0.499927
vt 0.795952 0.737239
vt 0.743684 0.826170
vt 0.258051 0.826170
vt 0.258051 0.794977
vt 0.743684 0.794977
vt 0.743684 0.786213
vt 0.258051 0.786213
vt 0.258051 0.755020
vt 0.743684 0.755019
vt 0.836509 0.004382
vt 0.836509 0.490014
vt 0.805316 0.490015
vt 0.805316 0.004382
vt 0.508498 0.504394
vt 0.749480 0.504394
vt 0.749480 0.535587
vt 0.508498 0.535587
vt 0.496224 0.011108
vt 0.496227 0.488904
vt 0.264756 0.488884
vt 0.264753 0.011131
vt 0.508498 0.544351
vt 0.749480 0.544351
vt 0.749480 0.575544
vt 0.508498 0.575544
vt 0.508498 0.584308
vt 0.749480 0.584308
vt 0.749480 0.615501
vt 0.508498 0.615501
vt 0.260163 0.873627
vt 0.497475 0.873627
vt 0.497475 0.904820
vt 0.260163 0.904820
vt 0.242565 0.011108
vt 0.242568 0.488904
vt 0.011097 0.488884
vt 0.011094 0.011131
vt 0.876466 0.004382
vt 0.876466 0.490014
vt 0.845273 0.490015
vt 0.845273 0.004382
vt 0.493004 0.511168
vt 0.493006 0.739479
vt 0.264782 0.739436
vt 0.264780 0.511215
vt 0.508498 0.664221
vt 0.749480 0.664222
vt 0.749480 0.695415
vt 0.508498 0.695415
vt 0.956380 0.498778
vt 0.956380 0.736091
vt 0.925187 0.736091
vt 0.925187 0.498778
vt 0.745811 0.735371
vt 0.508498 0.735371
vt 0.508498 0.704178
vt 0.745811 0.704178
vt 0.744555 0.864959
vt 0.258922 0.864959
vt 0.258922 0.833766
vt 0.744555 0.833766
vt 0.876466 0.498778
vt 0.876466 0.739760
vt 0.845273 0.739760
vt 0.845273 0.498778
vt 0.011097 0.988873
vt 0.011101 0.511117
vt 0.242575 0.511140
vt 0.242570 0.988897
vt 0.749480 0.655458
vt 0.508498 0.655458
vt 0.508498 0.624265
vt 0.749480 0.624265
vt 0.885230 0.739760
vt 0.885230 0.498778
vt 0.916423 0.498778
vt 0.916423 0.739760
vt 0.518415 0.488884
vt 0.518412 0.011131
vt 0.749883 0.011108
vt 0.749886 0.488904
vt 0.885230 0.490014
vt 0.885230 0.004382
vt 0.916423 0.004382
vt 0.916423 0.490014
vt 0.258041 0.004427
vt 0.502936 0.004382
vt 0.502936 0.495630
vt 0.258045 0.495586
vt 0.249277 0.004382
vt 0.249277 0.495630
vt 0.004382 0.004427
vt 0.004386 0.495586
vt 0.258051 0.504487
vt 0.499734 0.504394
vt 0.499734 0.746256
vt 0.258051 0.746162
vt 0.004382 0.504394
vt 0.249288 0.504436
vt 0.249288 0.995618
vt 0.004385 0.995576
vt 0.756595 0.004382
vt 0.756595 0.495630
vt 0.511700 0.004427
vt 0.511703 0.495586
vt 0.836509 0.498778
vt 0.836509 0.739760
vt 0.805316 0.739760
vt 0.805316 0.498778
s 0
f 24/1/1 21/2/1 1/3/1 2/4/1
f 34/5/2 29/6/2 5/7/2 7/8/2
f 42/9/1 37/10/1 9/11/1 11/12/1
f 48/13/3 45/14/3 13/15/3 14/16/3
f 58/17/4 53/18/4 17/19/4 19/20/4
f 25/21/3 27/22/3 4/23/3 3/24/3
f 29/25/1 31/26/1 6/27/1 5/28/1
f 28/29/5 26/30/5 22/31/5 23/32/5
f 27/33/2 24/34/2 2/35/2 4/36/2
f 36/37/3 34/38/3 7/39/3 8/40/3
f 37/41/4 40/42/4 10/43/4 9/44/4
f 35/45/5 32/46/5 30/47/5 33/48/5
f 31/49/4 36/50/4 8/51/4 6/52/4
f 38/53/5 41/54/5 44/55/5 39/56/5
f 45/57/2 49/58/2 15/59/2 13/60/2
f 40/61/3 43/62/3 12/63/3 10/64/3
f 43/65/2 42/66/2 11/67/2 12/68/2
f 49/69/1 51/70/1 16/71/1 15/72/1
f 53/73/3 55/74/3 18/75/3 17/76/3
f 46/77/5 47/78/5 52/79/5 50/80/5
f 51/81/4 48/82/4 14/83/4 16/84/4
f 60/85/1 58/86/1 19/87/1 20/88/1
f 54/89/5 57/90/5 59/91/5 56/92/5
f 55/93/2 60/94/2 20/95/2 18/96/2
f 28/29/6 23/32/6 24/97/6 27/98/6
f 26/30/7 28/29/7 27/98/7 25/99/7
f 25/99/8 21/100/8 22/31/8 26/30/8
f 21/100/9 24/97/9 23/32/9 22/31/9
f 32/46/8 35/45/8 36/101/8 31/102/8
f 35/45/7 33/48/7 34/103/7 36/101/7
f 31/102/9 29/104/9 30/47/9 32/46/9
f 29/104/6 34/103/6 33/48/6 30/47/6
f 38/53/8 39/56/8 40/105/8 37/106/8
f 44/55/6 41/54/6 42/107/6 43/108/6
f 41/54/9 38/53/9 37/106/9 42/107/9
f 39/56/7 44/55/7 43/108/7 40/105/7
f 52/79/8 47/78/8 48/109/8 51/110/8
f 50/80/9 52/79/9 51/110/9 49/111/9
f 49/111/6 45/112/6 46/77/6 50/80/6
f 45/112/7 48/109/7 47/78/7 46/77/7
f 56/92/6 59/91/6 60/113/6 55/114/6
f 59/91/9 57/90/9 58/115/9 60/113/9
f 55/114/7 53/116/7 54/89/7 56/92/7
f 53/116/8 58/115/8 57/90/8 54/89/8
f 21/117/4 25/118/4 3/119/4 1/120/4
